<?xml version="1.0" encoding="UTF-8" standalone="no"?>
<!-- Created with Inkscape (http://www.inkscape.org/) -->
<svg
   xmlns:dc="http://purl.org/dc/elements/1.1/"
   xmlns:cc="http://creativecommons.org/ns#"
   xmlns:rdf="http://www.w3.org/1999/02/22-rdf-syntax-ns#"
   xmlns:svg="http://www.w3.org/2000/svg"
   xmlns="http://www.w3.org/2000/svg"
   xmlns:xlink="http://www.w3.org/1999/xlink"
   xmlns:sodipodi="http://sodipodi.sourceforge.net/DTD/sodipodi-0.dtd"
   xmlns:inkscape="http://www.inkscape.org/namespaces/inkscape"
   width="210mm"
   height="297mm"
   id="svg3522"
   sodipodi:version="0.32"
   inkscape:version="0.46dev+devel"
   sodipodi:docname="candle.svg"
   inkscape:output_extension="org.inkscape.output.svg.inkscape">
  <defs
     id="defs3524">
    <linearGradient
       inkscape:collect="always"
       id="linearGradient5907">
      <stop
         style="stop-color:#ffd069;stop-opacity:1;"
         offset="0"
         id="stop5909" />
      <stop
         style="stop-color:#ffd069;stop-opacity:0;"
         offset="1"
         id="stop5911" />
    </linearGradient>
    <radialGradient
       inkscape:collect="always"
       xlink:href="#linearGradient5907"
       id="radialGradient2752"
       gradientUnits="userSpaceOnUse"
       gradientTransform="matrix(0.1084707,0,0,0.2895358,63.55712,138.0357)"
       cx="522.98924"
       cy="114.74001"
       fx="522.98924"
       fy="114.74001"
       r="29.556878" />
    <linearGradient
       id="linearGradient11253">
      <stop
         style="stop-color:#000000;stop-opacity:0.56122446;"
         offset="0.00000000"
         id="stop11255" />
      <stop
         style="stop-color:#000000;stop-opacity:0;"
         offset="1"
         id="stop11257" />
    </linearGradient>
    <radialGradient
       inkscape:collect="always"
       xlink:href="#linearGradient11253"
       id="radialGradient2748"
       gradientUnits="userSpaceOnUse"
       gradientTransform="matrix(0.3794358,0,0,8.2770493e-2,59.71415,129.59883)"
       cx="158.46890"
       cy="618.37878"
       fx="158.46890"
       fy="618.37878"
       r="11.334897" />
    <linearGradient
       inkscape:collect="always"
       id="linearGradient6673">
      <stop
         style="stop-color:#ffff91;stop-opacity:1;"
         offset="0"
         id="stop6675" />
      <stop
         style="stop-color:#ffff91;stop-opacity:0;"
         offset="1"
         id="stop6677" />
    </linearGradient>
    <radialGradient
       inkscape:collect="always"
       xlink:href="#linearGradient6673"
       id="radialGradient2685"
       gradientUnits="userSpaceOnUse"
       gradientTransform="matrix(0.1067086,0,0,0.2943169,63.55712,138.0357)"
       cx="527.96491"
       cy="98.806902"
       fx="527.96491"
       fy="98.806902"
       r="44.458195" />
  </defs>
  <sodipodi:namedview
     id="base"
     pagecolor="#ffffff"
     bordercolor="#666666"
     borderopacity="1.0"
     inkscape:pageopacity="0.0"
     inkscape:pageshadow="2"
     inkscape:zoom="0.35"
     inkscape:cx="350"
     inkscape:cy="520"
     inkscape:document-units="px"
     inkscape:current-layer="layer1"
     inkscape:window-width="640"
     inkscape:window-height="645"
     inkscape:window-x="1464"
     inkscape:window-y="184" />
  <metadata
     id="metadata3527">
    <rdf:RDF>
      <cc:Work
         rdf:about="">
        <dc:format>image/svg+xml</dc:format>
        <dc:type
           rdf:resource="http://purl.org/dc/dcmitype/StillImage" />
      </cc:Work>
    </rdf:RDF>
  </metadata>
  <g
     inkscape:label="Ebene 1"
     inkscape:groupmode="layer"
     id="layer1">
    <path
       style="fill:#d7aa2f;fill-opacity:1;fill-rule:evenodd;stroke:#000000;stroke-width:0.17721783px;stroke-linecap:butt;stroke-linejoin:miter;stroke-opacity:1"
       sodipodi:nodetypes="ccccccccccccccccccc"
       id="path2855"
       d="M 113.40047,216.07829 C 113.40047,215.20035 113.45031,209.82246 113.45031,207.88619 C 113.45031,206.16574 113.45031,204.44528 113.45031,202.72483 C 113.45031,201.00437 113.45031,199.28392 113.45031,197.56346 C 113.45031,196.28411 112.76213,194.39482 112.76213,192.74619 C 112.76213,190.90628 113.45031,189.82976 113.45031,187.92891 C 113.45031,186.28522 113.51366,184.23462 113.7944,183.11164 C 113.97913,182.37272 117.90554,182.76755 118.61167,182.76755 C 120.92719,182.76755 123.03451,182.50234 125.1494,182.07936 C 128.36237,181.43677 125.83759,183.9063 125.83759,185.17618 C 125.83759,186.86503 125.4935,188.86389 125.4935,190.68164 C 125.4935,192.61387 125.50551,194.40655 125.1494,196.1871 C 124.81257,197.87127 125.1494,199.96305 125.1494,201.69255 C 125.1494,203.41301 125.1494,205.13346 125.1494,206.85392 C 125.1494,208.84328 124.80531,210.39707 124.80531,212.35938 C 124.80531,214.32432 125.03831,215.99553 124.9146,217.4757 C 124.81956,218.61276 123.23864,218.58047 122.5702,218.74758 C 120.33843,219.30552 117.28893,219.35956 115.89439,218.6623 C 114.23688,217.83354 113.55269,218.17838 113.40047,216.07829 z"
       inkscape:export-filename="D:\eigene dateien\Google Desktop Gadgets Projekte\ChristmasTree\images\candleorange.png"
       inkscape:export-xdpi="52"
       inkscape:export-ydpi="52" />
    <path
       style="fill:#ffc321;fill-opacity:1;fill-rule:evenodd;stroke:#000000;stroke-width:0.17721783px;stroke-linecap:butt;stroke-linejoin:miter;stroke-opacity:1"
       id="path2859"
       d="M 127.95038,180.41478 C 127.65096,180.24104 126.77074,179.80555 126.15057,179.68152 C 125.5245,179.55631 124.91216,179.30526 124.2841,179.14824 C 123.63341,178.98557 122.82639,178.88161 122.15099,178.88161 C 121.48013,178.88161 120.67044,178.81214 120.01788,178.68163 C 119.46823,178.5717 118.7762,178.68163 118.21807,178.68163 C 117.65032,178.68163 116.8123,178.69977 116.35159,178.81494 C 115.70892,178.97561 115.08118,179.31586 114.41846,179.48154 C 113.96515,179.59487 113.46756,180.03249 113.15193,180.34812 C 112.57709,180.92296 112.69779,181.65636 112.35201,182.34791 C 112.1558,182.74032 112.15203,183.70644 112.15203,184.14772 C 112.15203,184.74616 112.19703,185.38926 112.08537,185.94753 C 111.97919,186.47845 112.01871,187.14645 112.01871,187.68068 C 112.01871,188.40772 111.95656,189.05798 111.81873,189.74714 C 111.72447,190.21845 111.83325,191.00508 111.95205,191.48028 C 112.19281,192.44333 112.38598,193.20963 112.21869,194.21333 C 112.13192,194.73397 112.06083,195.36412 112.28535,195.81317 C 112.49795,196.23836 112.47383,196.44221 112.75197,196.81306 C 112.98314,197.12129 113.56438,196.87347 113.6852,196.81306 C 114.19488,196.55823 114.21462,196.16193 114.3518,195.61319 C 114.55256,194.81016 115.33102,194.62932 115.48502,194.01335 C 115.59937,193.55595 115.48502,192.8796 115.48502,192.41352 C 115.48502,191.68027 115.48502,190.94701 115.48502,190.21375 C 115.48502,190.05821 115.48502,189.90268 115.48502,189.74714 C 115.48502,189.22642 115.67462,188.83465 115.88498,188.41394 C 116.11286,187.95818 116.42346,187.88066 116.88487,187.88066 C 117.25724,187.88066 117.16204,188.79991 117.21817,189.08054 C 117.32044,189.59189 117.75628,189.78167 118.15141,189.88045 C 119.15534,190.13144 118.99789,188.7518 119.35128,188.28062 C 119.83184,187.63988 120.42053,187.61537 121.08443,187.94732 C 121.60705,188.20863 121.5128,189.52746 121.61771,189.94711 C 121.77973,190.59519 121.45243,191.33873 121.35107,191.94691 C 121.33244,192.05867 121.30663,192.1691 121.28441,192.2802 C 121.17876,192.80846 121.31967,193.58971 121.41773,194.08002 C 121.54203,194.70151 122.54612,194.67995 122.9509,194.67995 C 123.76673,194.67995 124.30311,193.89926 124.41742,193.21344 C 124.51205,192.64565 124.37582,192.02156 124.48408,191.48028 C 124.62182,190.79156 124.41857,190.14421 124.68406,189.4805 C 124.89529,188.95241 125.23313,189.1437 125.35065,189.61382 C 125.46364,190.06579 125.40509,190.1607 125.88393,190.28041 C 126.38145,190.40479 126.58851,189.91869 126.81717,189.61382 C 127.01595,189.34877 126.88383,188.48454 126.88383,188.1473 C 126.88383,187.37436 127.23145,186.69017 127.4171,185.94753 C 127.43932,185.85865 127.46154,185.76977 127.48377,185.68089 C 127.6156,185.15354 127.78524,184.70679 127.88372,184.21438 C 127.97916,183.73719 128.0837,183.31071 128.0837,182.81453 C 128.0837,182.48478 128.21702,182.12277 128.21702,181.74797 C 128.21702,181.38907 128.14678,181.06702 128.0837,180.81474 C 128.07608,180.78425 128.03926,180.7703 128.01704,180.74807 C 127.93693,180.66796 127.9726,180.52588 127.95038,180.41478 z"
       inkscape:export-filename="D:\eigene dateien\Google Desktop Gadgets Projekte\ChristmasTree\images\candleorange.png"
       inkscape:export-xdpi="52"
       inkscape:export-ydpi="52" />
    <path
       style="fill:none;fill-opacity:0.75;fill-rule:evenodd;stroke:#000000;stroke-width:0.56709707;stroke-linecap:round;stroke-linejoin:miter;stroke-miterlimit:4;stroke-opacity:1"
       id="path2861"
       d="M 119.88456,180.61475 C 119.71266,180.44286 119.66199,179.45787 119.55126,179.01492 C 119.34729,178.19905 119.68274,177.66737 120.1512,177.08179 C 120.21009,177.00818 120.28452,176.94847 120.35118,176.88181 C 120.57908,176.65391 120.78808,176.20798 120.95111,175.88192 C 121.16491,175.45434 121.35107,175.10372 121.35107,174.54872 C 121.35107,174.03286 121.24318,173.67597 121.15109,173.21553 C 121.05969,172.75852 120.94786,172.42863 121.01777,172.14897"
       inkscape:export-filename="D:\eigene dateien\Google Desktop Gadgets Projekte\ChristmasTree\images\candleorange.png"
       inkscape:export-xdpi="52"
       inkscape:export-ydpi="52" />
    <path
       style="fill:url(#radialGradient2752);fill-opacity:1;fill-rule:evenodd;stroke:none;stroke-width:1px;stroke-linecap:butt;stroke-linejoin:miter;stroke-opacity:1"
       id="path2863"
       d="M 119.61792,179.81484 C 119.63205,179.49147 119.20981,179.13193 119.01798,178.74828 C 118.86186,178.43605 118.65888,178.23006 118.55136,178.01503 C 118.36146,177.63522 118.10724,177.37173 118.01809,177.01513 C 117.92361,176.63723 117.77962,176.32791 117.68479,175.94858 C 117.58567,175.55211 117.52542,175.16322 117.35149,174.81536 C 117.18149,174.47536 117.24882,173.93805 117.15151,173.54883 C 117.05343,173.15653 117.08485,172.69527 117.08485,172.2823 C 117.08485,171.66658 117.23612,170.99267 117.35149,170.41582 C 117.48371,169.75472 117.79763,169.12359 118.08474,168.54935 C 118.38111,167.95662 118.87154,167.44238 119.1513,166.88286 C 119.42649,166.33249 119.73217,165.82591 119.88456,165.21636 C 120.07738,164.44509 120.3361,163.75859 120.48449,163.01659 C 120.65344,162.17186 120.40807,163.25564 120.35118,163.48321 C 120.14689,164.30035 120.46187,165.35978 120.75113,166.08294 C 121.12875,167.02697 121.5637,167.84139 122.01767,168.74933 C 122.25002,169.21404 122.49166,170.04534 122.61761,170.54914 C 122.82547,171.38061 123.0833,172.14619 123.35086,172.94889 C 123.54115,173.51974 123.48418,174.14685 123.48418,174.7487 C 123.48418,175.25235 123.20533,175.50639 123.01756,175.88192 C 122.83246,176.25212 122.17784,176.6117 121.81769,176.88181 C 121.52291,177.1029 121.20932,177.56527 121.08443,177.81505 C 120.95652,178.07086 120.4753,178.62416 120.28452,178.81494 C 119.97274,179.12672 119.78353,179.40083 119.61792,179.81484 z"
       inkscape:export-filename="D:\eigene dateien\Google Desktop Gadgets Projekte\ChristmasTree\images\candleorange.png"
       inkscape:export-xdpi="52"
       inkscape:export-ydpi="52" />
    <path
       style="fill:url(#radialGradient2748);fill-opacity:1;fill-rule:evenodd;stroke:none;stroke-width:1px;stroke-linecap:butt;stroke-linejoin:miter;stroke-opacity:1"
       id="path10493"
       d="M 121.49657,179.88892 C 121.21395,179.88744 120.27331,179.84425 119.70966,179.84425 C 119.47523,179.84425 119.18222,180.06474 119.03957,180.11229 C 118.56705,180.26979 117.90591,180.02294 117.43136,180.02294 C 116.83451,180.02294 116.29632,180.0588 115.73379,180.24631 C 115.32977,180.38098 115.65765,180.93747 115.86781,181.09509 C 116.5196,181.58393 117.03468,181.72051 117.83341,181.72051 C 118.84914,181.72051 119.86519,181.7302 120.87116,181.58649 C 121.59113,181.48364 122.28952,181.36033 123.01545,181.54182 C 123.46637,181.65455 124.02074,181.63056 124.13227,181.18443 C 124.25645,180.68772 123.34446,180.40471 123.06012,180.29098 C 122.63483,180.12086 122.22249,180.25467 121.85396,179.97827 C 121.75572,179.90459 121.61698,179.913 121.49657,179.88892 z"
       inkscape:export-filename="D:\eigene dateien\Google Desktop Gadgets Projekte\ChristmasTree\images\candleorange.png"
       inkscape:export-xdpi="52"
       inkscape:export-ydpi="52" />
    <path
       d="M 119.68458,180.14814 C 119.39232,180.44039 119.24358,179.4405 118.95132,179.14824 C 118.52182,178.71874 118.1628,178.42639 117.75145,178.01503 C 117.16741,177.43098 116.73797,176.82812 116.28493,176.14856 C 115.78106,175.39275 115.59101,174.54543 115.41836,173.68215 C 115.26394,172.91004 115.15172,172.21572 115.15172,171.41572 C 115.15172,170.70198 115.13532,169.99839 115.3517,169.34927 C 115.41836,169.14929 115.48502,168.94931 115.55168,168.74933 C 115.7532,168.14475 115.87661,167.49952 116.15161,166.94952 C 116.49216,166.26842 116.87692,165.56556 117.21817,164.88307 C 117.72752,163.86436 118.36526,163.07309 118.818,162.0167 C 119.18482,161.16079 119.75011,160.38637 120.08454,159.55029 C 120.32105,158.95901 120.49815,158.28215 120.61781,157.68382 C 120.7343,157.10137 120.88446,156.6238 120.88446,156.01732 C 120.88446,155.60329 121.01777,155.13584 121.01777,154.68413 C 121.01777,154.37261 121.10975,153.64963 120.95111,154.28417 C 120.7655,155.0266 120.92589,155.88217 121.01777,156.61726 C 121.11535,157.39787 121.19625,158.17623 121.35107,158.95035 C 121.52415,159.81572 121.54014,160.75133 121.68437,161.61674 C 121.80924,162.36593 121.93454,163.10874 122.21765,163.81651 C 122.51125,164.55051 122.56987,165.29207 122.75092,166.01628 C 122.93719,166.76133 123.35432,167.55637 123.68416,168.21605 C 123.73767,168.32308 123.77304,168.43825 123.81748,168.54935 C 124.02784,169.07524 124.16501,169.52528 124.35076,170.08252 C 124.53924,170.64796 124.52228,171.17833 124.6174,171.74902 C 124.69043,172.18719 124.56668,172.6692 124.48408,173.08221 C 124.38747,173.56522 124.42932,173.92498 124.21744,174.34874 C 124.07575,174.63212 124.01292,174.90017 123.9508,175.14866 C 123.83772,175.60099 123.68305,175.88303 123.35086,176.21522 C 123.12504,176.44104 122.87152,176.56123 122.68427,176.74849 C 122.46243,176.97033 122.10859,177.24691 121.88435,177.41509 C 121.51125,177.69492 121.00761,178.20634 120.75113,178.54831 C 120.51011,178.86967 120.11183,179.16031 119.95122,179.48154 C 119.81673,179.75052 119.81708,179.81689 119.68458,180.14814 z"
       id="path2865"
       style="fill:url(#radialGradient2685);fill-opacity:1;fill-rule:evenodd;stroke:none;stroke-width:1px;stroke-linecap:butt;stroke-linejoin:miter;stroke-opacity:1"
       inkscape:export-filename="D:\eigene dateien\Google Desktop Gadgets Projekte\ChristmasTree\images\candleorange.png"
       inkscape:export-xdpi="52"
       inkscape:export-ydpi="52" />
  </g>
</svg>
